<mxfile host="65bd71144e">
    <diagram id="uvzPCthd5abuWoMqx6LB" name="Page-1">
        <mxGraphModel dx="766" dy="666" grid="1" gridSize="10" guides="1" tooltips="1" connect="1" arrows="1" fold="1" page="1" pageScale="1" pageWidth="827" pageHeight="1169" math="0" shadow="0">
            <root>
                <mxCell id="0"/>
                <mxCell id="1" parent="0"/>
                <mxCell id="2" value="" style="shape=actor;whiteSpace=wrap;html=1;" vertex="1" parent="1">
                    <mxGeometry x="50" y="399" width="40" height="60" as="geometry"/>
                </mxCell>
                <mxCell id="4" value="You" style="text;html=1;strokeColor=none;fillColor=none;align=center;verticalAlign=middle;whiteSpace=wrap;rounded=0;" vertex="1" parent="1">
                    <mxGeometry x="40" y="429" width="60" height="30" as="geometry"/>
                </mxCell>
                <mxCell id="5" value="" style="shape=mxgraph.pid.vessels.gas_bottle;html=1;pointerEvents=1;align=center;verticalLabelPosition=bottom;verticalAlign=top;dashed=0;" vertex="1" parent="1">
                    <mxGeometry x="170" y="329" width="30" height="70" as="geometry"/>
                </mxCell>
                <mxCell id="6" value="" style="shape=mxgraph.pid.vessels.gas_bottle;html=1;pointerEvents=1;align=center;verticalLabelPosition=bottom;verticalAlign=top;dashed=0;" vertex="1" parent="1">
                    <mxGeometry x="170" y="429" width="30" height="70" as="geometry"/>
                </mxCell>
                <mxCell id="7" value="" style="ellipse;whiteSpace=wrap;html=1;" vertex="1" parent="1">
                    <mxGeometry x="280" y="339" width="50" height="40" as="geometry"/>
                </mxCell>
                <mxCell id="8" value="" style="ellipse;whiteSpace=wrap;html=1;" vertex="1" parent="1">
                    <mxGeometry x="280" y="419" width="50" height="40" as="geometry"/>
                </mxCell>
                <mxCell id="9" value="" style="ellipse;whiteSpace=wrap;html=1;" vertex="1" parent="1">
                    <mxGeometry x="280" y="464" width="50" height="40" as="geometry"/>
                </mxCell>
                <mxCell id="10" value="Bottle A" style="text;html=1;strokeColor=none;fillColor=none;align=center;verticalAlign=middle;whiteSpace=wrap;rounded=0;" vertex="1" parent="1">
                    <mxGeometry x="155" y="299" width="60" height="30" as="geometry"/>
                </mxCell>
                <mxCell id="11" value="Bottle B" style="text;html=1;strokeColor=none;fillColor=none;align=center;verticalAlign=middle;whiteSpace=wrap;rounded=0;" vertex="1" parent="1">
                    <mxGeometry x="155" y="499" width="60" height="30" as="geometry"/>
                </mxCell>
                <mxCell id="12" value="Required 1 pill" style="text;html=1;strokeColor=none;fillColor=none;align=center;verticalAlign=middle;whiteSpace=wrap;rounded=0;" vertex="1" parent="1">
                    <mxGeometry x="265" y="309" width="85" height="30" as="geometry"/>
                </mxCell>
                <mxCell id="13" value="Took 2 pill (by mistake)" style="text;html=1;strokeColor=none;fillColor=none;align=center;verticalAlign=middle;whiteSpace=wrap;rounded=0;" vertex="1" parent="1">
                    <mxGeometry x="239.5" y="504" width="137.5" height="30" as="geometry"/>
                </mxCell>
                <mxCell id="14" value="" style="shape=step;perimeter=stepPerimeter;whiteSpace=wrap;html=1;fixedSize=1;" vertex="1" parent="1">
                    <mxGeometry x="360" y="369" width="140" height="50" as="geometry"/>
                </mxCell>
                <mxCell id="15" value="Puts 3 pills into a glass of water" style="text;html=1;strokeColor=none;fillColor=none;align=center;verticalAlign=middle;whiteSpace=wrap;rounded=0;" vertex="1" parent="1">
                    <mxGeometry x="377" y="378" width="103" height="30" as="geometry"/>
                </mxCell>
                <mxCell id="16" value="" style="shape=cylinder3;whiteSpace=wrap;html=1;boundedLbl=1;backgroundOutline=1;size=15;" vertex="1" parent="1">
                    <mxGeometry x="550" y="369" width="60" height="80" as="geometry"/>
                </mxCell>
                <mxCell id="18" value="Glass of water" style="text;html=1;strokeColor=none;fillColor=none;align=center;verticalAlign=middle;whiteSpace=wrap;rounded=0;" vertex="1" parent="1">
                    <mxGeometry x="537.5" y="454" width="85" height="30" as="geometry"/>
                </mxCell>
                <mxCell id="19" value="&lt;b&gt;&lt;font style=&quot;font-size: 18px;&quot;&gt;Puzzle : A man with medical condition and two pills&lt;/font&gt;&lt;/b&gt;" style="text;html=1;strokeColor=none;fillColor=none;align=center;verticalAlign=middle;whiteSpace=wrap;rounded=0;" vertex="1" parent="1">
                    <mxGeometry x="40" y="40" width="470" height="30" as="geometry"/>
                </mxCell>
                <mxCell id="20" value="&lt;div style=&quot;text-align: justify;&quot;&gt;&lt;span style=&quot;font-size: 14px; background-color: initial;&quot;&gt;Puzzle : A man has a medical condition that requires him to take two kinds of pills. Call them A and B. The man must take exactly one A pill and exactly 1 B pill each day or he will die. The bills are taken by first dissolving them in water.&lt;/span&gt;&lt;/div&gt;&lt;font style=&quot;font-size: 14px;&quot;&gt;&lt;div style=&quot;text-align: justify;&quot;&gt;&lt;span style=&quot;background-color: initial;&quot;&gt;The man has a jar of A pills and a jar of B pills. One day as he is about to take his pills, he takes out one A pill from jar A and puts it in a glass of water. Then he accidentally takes out 2 B pills from B jar and put them in water. Now he is in the situation of having a glass of water with three dissolve pills, 1 A pill and 2 B pills. Unfortunately, the bills are very expensive. So the thought of throwing out the water with the three pills and starting over is out of question, how should the man proceed in order to get the right quantity of a and B while not wasting any pills?&amp;nbsp;&lt;/span&gt;&lt;/div&gt;&lt;/font&gt;" style="text;html=1;strokeColor=none;fillColor=none;align=center;verticalAlign=middle;whiteSpace=wrap;rounded=0;" vertex="1" parent="1">
                    <mxGeometry x="50" y="90" width="440" height="210" as="geometry"/>
                </mxCell>
                <mxCell id="22" value="" style="edgeStyle=elbowEdgeStyle;elbow=horizontal;endArrow=classic;html=1;curved=0;rounded=0;endSize=8;startSize=8;fontSize=14;" edge="1" parent="1">
                    <mxGeometry width="50" height="50" relative="1" as="geometry">
                        <mxPoint x="105" y="429" as="sourcePoint"/>
                        <mxPoint x="155" y="379" as="targetPoint"/>
                    </mxGeometry>
                </mxCell>
                <mxCell id="23" value="" style="edgeStyle=elbowEdgeStyle;elbow=horizontal;endArrow=classic;html=1;curved=0;rounded=0;endSize=8;startSize=8;fontSize=14;exitX=1;exitY=0;exitDx=0;exitDy=0;" edge="1" parent="1" source="4">
                    <mxGeometry width="50" height="50" relative="1" as="geometry">
                        <mxPoint x="110" y="504" as="sourcePoint"/>
                        <mxPoint x="160" y="480" as="targetPoint"/>
                        <Array as="points">
                            <mxPoint x="130" y="470"/>
                        </Array>
                    </mxGeometry>
                </mxCell>
                <mxCell id="26" value="" style="endArrow=classic;html=1;fontSize=14;entryX=-0.06;entryY=0.713;entryDx=0;entryDy=0;entryPerimeter=0;exitX=1.133;exitY=0.564;exitDx=0;exitDy=0;exitPerimeter=0;" edge="1" parent="1" source="5" target="7">
                    <mxGeometry width="50" height="50" relative="1" as="geometry">
                        <mxPoint x="200" y="378" as="sourcePoint"/>
                        <mxPoint x="250" y="328" as="targetPoint"/>
                    </mxGeometry>
                </mxCell>
                <mxCell id="27" value="" style="endArrow=classic;html=1;fontSize=14;" edge="1" parent="1">
                    <mxGeometry width="50" height="50" relative="1" as="geometry">
                        <mxPoint x="203" y="460" as="sourcePoint"/>
                        <mxPoint x="270" y="460" as="targetPoint"/>
                    </mxGeometry>
                </mxCell>
                <mxCell id="28" value="&lt;div style=&quot;text-align: justify;&quot;&gt;&lt;span style=&quot;font-size: 14px;&quot;&gt;Solution : As there is 1 A pill in bottle A and 2 B pills in bottle B so the solution will be:&lt;/span&gt;&lt;/div&gt;&lt;div style=&quot;text-align: justify;&quot;&gt;&lt;span style=&quot;font-size: 14px;&quot;&gt;Put another A pill in bottle A so now both Bottles have 2 pills of A and B&lt;/span&gt;&lt;/div&gt;&lt;div style=&quot;text-align: justify;&quot;&gt;&lt;span style=&quot;font-size: 14px;&quot;&gt;so now drink half of bottle A and bottle B today and rest halves tomorrow by this within 2 days we will have the prescribed pill content.&lt;/span&gt;&lt;/div&gt;" style="text;html=1;strokeColor=none;fillColor=none;align=center;verticalAlign=middle;whiteSpace=wrap;rounded=0;" vertex="1" parent="1">
                    <mxGeometry x="50" y="534" width="440" height="210" as="geometry"/>
                </mxCell>
            </root>
        </mxGraphModel>
    </diagram>
</mxfile>